{"title":"Ab Tak Chhappan 2 2015 Hindi Movies PDVDRip XViD +Sample ~ â˜»rDXâ˜»","uid":11725598,"size":740114994,"categoryP":"video","categoryS":"movies","magnet":"?xt=urn:btih:fe4b6fd049714f02b43459b37f9c09a05c83d087&amp;dn=Ab+Tak+Chhappan+2+2015+Hindi+Movies+PDVDRip+XViD+%2BSample+%7E+%E2%98%BBrDX%E2%98%BB&amp;tr=udp%3A%2F%2Ftracker.openbittorrent.com%3A80&amp;tr=udp%3A%2F%2Fopen.demonii.com%3A1337&amp;tr=udp%3A%2F%2Ftracker.coppersurfer.tk%3A6969&amp;tr=udp%3A%2F%2Fexodus.desync.com%3A6969","seeders":1,"leechers":2,"uploader":"basicssom","files":2,"time":1425033566,"description":"----------------------------------------------------------------\nAb Tak Chhappan 2 2015 Hindi Movies PDVDRip XViD AAC with Sample ~ â˜»rDXâ˜»\n\nSCREEN SHOTS &amp; POSTER:\n &lt;a href=&quot;\nhttp://planethost.co.nr/2015/2/AbTakChhappan2/11.html&quot; rel=&quot;nofollow&quot; target=&quot;_NEW&quot;&gt;\nhttp://planethost.co.nr/2015/2/AbTakChhappan2/11.html&lt;/a&gt; &lt;a href=&quot;\nhttp://planethost.co.nr/2015/2/AbTakChhappan2/1.html&quot; rel=&quot;nofollow&quot; target=&quot;_NEW&quot;&gt;\nhttp://planethost.co.nr/2015/2/AbTakChhappan2/1.html&lt;/a&gt; &lt;a href=&quot;\nhttp://planethost.co.nr/2015/2/AbTakChhappan2/2.html&quot; rel=&quot;nofollow&quot; target=&quot;_NEW&quot;&gt;\nhttp://planethost.co.nr/2015/2/AbTakChhappan2/2.html&lt;/a&gt; &lt;a href=&quot;\nhttp://planethost.co.nr/2015/2/AbTakChhappan2/3.html&quot; rel=&quot;nofollow&quot; target=&quot;_NEW&quot;&gt;\nhttp://planethost.co.nr/2015/2/AbTakChhappan2/3.html&lt;/a&gt; &lt;a href=&quot;\nhttp://planethost.co.nr/2015/2/AbTakChhappan2/4.html&quot; rel=&quot;nofollow&quot; target=&quot;_NEW&quot;&gt;\nhttp://planethost.co.nr/2015/2/AbTakChhappan2/4.html&lt;/a&gt; &lt;a href=&quot;\nhttp://planethost.co.nr/2015/2/AbTakChhappan2/5.html&quot; rel=&quot;nofollow&quot; target=&quot;_NEW&quot;&gt;\nhttp://planethost.co.nr/2015/2/AbTakChhappan2/5.html&lt;/a&gt; &lt;a href=&quot;\nhttp://planethost.co.nr/2015/2/AbTakChhappan2/6.html&quot; rel=&quot;nofollow&quot; target=&quot;_NEW&quot;&gt;\nhttp://planethost.co.nr/2015/2/AbTakChhappan2/6.html&lt;/a&gt; &lt;a href=&quot;\nhttp://planethost.co.nr/2015/2/AbTakChhappan2/7.html&quot; rel=&quot;nofollow&quot; target=&quot;_NEW&quot;&gt;\nhttp://planethost.co.nr/2015/2/AbTakChhappan2/7.html&lt;/a&gt; &lt;a href=&quot;\nhttp://planethost.co.nr/2015/2/AbTakChhappan2/8.html&quot; rel=&quot;nofollow&quot; target=&quot;_NEW&quot;&gt;\nhttp://planethost.co.nr/2015/2/AbTakChhappan2/8.html&lt;/a&gt; &lt;a href=&quot;\nhttp://planethost.co.nr/2015/2/AbTakChhappan2/9.html&quot; rel=&quot;nofollow&quot; target=&quot;_NEW&quot;&gt;\nhttp://planethost.co.nr/2015/2/AbTakChhappan2/9.html&lt;/a&gt; &lt;a href=&quot;\nhttp://planethost.co.nr/2015/2/AbTakChhappan2/10.html&quot; rel=&quot;nofollow&quot; target=&quot;_NEW&quot;&gt;\nhttp://planethost.co.nr/2015/2/AbTakChhappan2/10.html&lt;/a&gt;\n\nFormat                                   : Matroska\nFormat version                           : Version 4 / Version 2\nFile size                                : 692 MiB\nDuration                                 : 1h 42mn\nOverall bit rate                         : 941 Kbps\nMovie name                               : Ab Tak Chhappan 2 2015 Hindi Movies PDVDRip XViD AAC ~ rDX ~\n\nVideo\nID                                       : 1\nFormat                                   : MPEG-4 Visual\nFormat profile                           : Advanced Simple@L5\nFormat settings, BVOP                    : Yes\nFormat settings, QPel                    : No\nFormat settings, GMC                     : No warppoints\nFormat settings, Matrix                  : Default (H.263)\nCodec ID                                 : V_MS/VFW/FOURCC / XVID\nCodec ID/Hint                            : XviD\nDuration                                 : 1h 42mn\nBit rate                                 : 858 Kbps\nWidth                                    : 640 pixels\nHeight                                   : 288 pixels\nDisplay aspect ratio                     : 2.222\nFrame rate mode                          : Constant\nFrame rate                               : 23.976 fps\nColor space                              : YUV\nChroma subsampling                       : 4:2:0\nBit depth                                : 8 bits\nScan type                                : Progressive\nCompression mode                         : Lossy\nBits/(Pixel*Frame)                       : 0.194\nStream size                              : 631 MiB (91%)\nTitle                                    : ~ rDX ~\nWriting library                          : XviD 1.2.1 (UTC 2008-12-04)\nDefault                                  : Yes\nForced                                   : No\n\nAudio\nID                                       : 2\nFormat                                   : MPEG Audio\nFormat version                           : Version 2\nFormat profile                           : Layer 3\nMode                                     : Joint stereo\nMode extension                           : MS Stereo\nCodec ID                                 : A_MPEG/L3\nCodec ID/Hint                            : MP3\nDuration                                 : 1h 42mn\nBit rate mode                            : Constant\nBit rate                                 : 64.0 Kbps\nChannel(s)                               : 2 channels\nSampling rate                            : 24.0 KHz\nCompression mode                         : Lossy\nStream size                              : 47.1 MiB (7%)\nTitle                                    : ~ rDX ~\nWriting library                          : LAME3.99r\nEncoding settings                        : -m j -V 4 -q 2 -lowpass 11 -b 64\nDefault                                  : Yes\nForced                                   : No","torrent":{"xt":"urn:btih:fe4b6fd049714f02b43459b37f9c09a05c83d087","amp;dn":"Ab+Tak+Chhappan+2+2015+Hindi+Movies+PDVDRip+XViD+%2BSample+%7E+%E2%98%BBrDX%E2%98%BB","amp;tr":["udp%3A%2F%2Ftracker.openbittorrent.com%3A80","udp%3A%2F%2Fopen.demonii.com%3A1337","udp%3A%2F%2Ftracker.coppersurfer.tk%3A6969","udp%3A%2F%2Fexodus.desync.com%3A6969"],"infoHash":"fe4b6fd049714f02b43459b37f9c09a05c83d087","infoHashBuffer":{"type":"Buffer","data":[254,75,111,208,73,113,79,2,180,52,89,179,127,156,9,160,92,131,208,135]},"announce":[],"urlList":[]}}